<svg version="1.1" id="Layer_1" xmlns="http://www.w3.org/2000/svg" xmlns:xlink="http://www.w3.org/1999/xlink" x="0px" y="0px"
	 width="100%" viewBox="0 0 1920 1920" enable-background="new 0 0 1920 1920" xml:space="preserve">
<path fill="#7689A8" opacity="1.000000" stroke="none" 
	d="
M1.000000,999.000000 
	C1.000000,974.312439 1.000000,949.624878 1.323360,924.195190 
	C2.457678,910.563171 2.691811,897.605591 4.194494,884.796814 
	C7.801889,854.047668 10.905056,823.178284 16.175875,792.697083 
	C31.299868,705.234802 58.635456,621.580688 97.522484,541.765747 
	C162.689743,408.011017 253.922287,295.222290 371.172333,203.713242 
	C466.744537,129.122879 572.915588,74.822609 689.207031,40.420681 
	C743.743530,24.287418 799.272705,12.973696 855.839172,7.079023 
	C874.992432,5.083093 894.279541,4.388053 913.493835,2.944403 
	C917.356140,2.654216 921.165955,1.666246 925.000000,0.999998 
	C948.020874,1.000000 971.041809,1.000000 994.831970,1.276539 
	C1000.699707,2.035495 1005.789124,2.679614 1010.898621,2.964324 
	C1019.661194,3.452596 1028.490356,3.220289 1037.195801,4.168980 
	C1061.518066,6.819515 1085.891602,9.265094 1110.066040,12.960885 
	C1194.952759,25.938417 1276.468384,50.478195 1354.777832,85.694351 
	C1434.682373,121.627785 1508.539429,167.356491 1575.389771,223.969193 
	C1600.503540,245.237015 1623.855469,268.585358 1647.669678,291.042847 
	C1645.551025,292.561615 1643.635132,293.884277 1642.015381,295.503448 
	C1512.930054,424.545166 1383.868774,553.610962 1254.795044,682.664368 
	C1253.151245,684.307983 1251.373535,685.817627 1249.397095,687.180542 
	C1210.066040,647.906189 1171.003540,608.834106 1131.899170,569.803894 
	C1130.437378,568.344910 1128.569336,567.292908 1126.926025,566.044495 
	C1126.961548,566.037720 1126.959717,566.109924 1126.947510,565.807129 
	C1126.593506,565.343018 1126.251709,565.181702 1125.946655,565.018921 
	C1125.983276,565.017578 1125.983887,565.090698 1125.944824,564.799316 
	C1125.574585,564.341064 1125.243652,564.174133 1124.958008,563.995178 
	C1125.003296,563.983154 1125.028687,564.073364 1124.879150,563.856628 
	C1124.458618,563.417969 1124.187744,563.196045 1123.972168,562.966309 
	C1124.027710,562.958435 1124.048096,563.068665 1123.891724,562.958008 
	C1123.513306,562.537842 1123.291382,562.228455 1122.771851,561.769348 
	C1112.731567,552.343872 1103.687866,542.166321 1093.111328,533.966064 
	C1064.598511,511.859528 1031.539062,501.597504 995.771362,500.159668 
	C976.979797,499.404266 958.127380,499.320465 939.328857,499.857178 
	C925.452759,500.253326 911.415710,501.049011 897.805725,503.578461 
	C860.233582,510.561401 828.568604,528.789368 803.355774,557.480652 
	C794.528259,567.526001 785.096802,578.013367 779.841492,590.007812 
	C770.905457,610.402954 766.710388,632.537659 765.074768,654.900330 
	C762.849548,685.324463 769.238464,714.868713 774.407227,744.561890 
	C776.587219,757.085327 777.579651,769.819275 778.940979,782.475952 
	C779.094421,783.902222 778.609497,786.124268 777.610779,786.827942 
	C771.611755,791.054504 770.462463,797.337952 770.083313,803.846252 
	C768.771606,826.361511 774.017883,847.874573 780.642029,869.103760 
	C786.562561,888.078186 793.144592,906.849731 805.297241,922.921692 
	C807.876343,926.332581 812.155945,928.457703 815.652039,931.175232 
	C816.045776,930.767700 816.439514,930.360168 816.833191,929.952637 
	C818.578369,937.832153 820.073914,945.777283 822.123230,953.576843 
	C825.821594,967.652222 830.280823,981.348572 844.270935,989.111816 
	C845.053894,989.546265 845.481201,991.305176 845.444946,992.427307 
	C845.047668,1004.728638 844.440369,1017.023560 844.094849,1029.325928 
	C844.005371,1032.513062 843.487122,1034.648438 839.832214,1035.412354 
	C838.455261,1035.700073 837.005310,1037.548828 836.364258,1039.023071 
	C835.257019,1041.569580 834.801575,1044.393433 833.992615,1047.076660 
	C830.878723,1057.405396 827.733032,1067.724609 824.541809,1078.236328 
	C819.280579,1076.025757 814.586243,1074.053223 809.773254,1072.031006 
	C799.762634,1084.846802 789.902405,1097.566162 779.926758,1110.194214 
	C775.877991,1115.319458 772.249878,1120.448486 765.482117,1123.182007 
	C680.809021,1157.382935 596.252747,1191.873657 511.738342,1226.465332 
	C508.382782,1227.838745 505.298279,1230.567139 502.850555,1233.338135 
	C494.916809,1242.319702 490.557312,1253.255737 487.037140,1264.522949 
	C476.353516,1298.719238 472.984985,1334.315552 466.988373,1369.413818 
	C463.990845,1386.958374 460.412842,1404.403809 457.145203,1422.154053 
	C457.469635,1422.624756 457.746246,1422.835327 458.085022,1423.376465 
	C467.239868,1433.020630 476.332520,1442.334106 485.214447,1451.947632 
	C483.512054,1453.815308 482.053375,1455.415771 480.523956,1456.945557 
	C418.803131,1518.677368 357.074249,1580.401123 295.359711,1642.139160 
	C293.836578,1643.663086 292.464783,1645.338257 290.723267,1646.800781 
	C236.265579,1593.647583 188.972748,1535.099609 148.578674,1470.969604 
	C99.361038,1392.831299 62.383938,1309.238770 37.142738,1220.459839 
	C23.693752,1173.156616 14.075150,1125.027832 8.222846,1076.205200 
	C5.791015,1055.917603 4.594937,1035.482788 2.778043,1015.120178 
	C2.297691,1009.736755 1.598634,1004.372864 1.000000,999.000000 
z"/>
<path fill="#2C3640" opacity="1.000000" stroke="none" 
	d="
M999.000000,1921.000000 
	C984.645752,1921.000000 970.291565,1921.000000 955.299561,1920.715332 
	C953.731567,1919.476318 952.812073,1918.511353 951.869751,1917.569336 
	C805.299683,1770.994507 658.725952,1624.423584 512.161072,1477.843872 
	C503.680511,1469.362549 495.270325,1460.810913 486.915405,1451.927734 
	C494.296936,1443.914917 501.622131,1436.296021 508.858765,1428.593994 
	C510.408539,1426.944580 511.637390,1424.993530 513.467773,1423.109253 
	C516.253418,1423.016479 518.585327,1422.977661 520.917236,1422.977661 
	C833.615540,1422.974976 1146.313843,1422.977051 1459.012207,1422.932617 
	C1460.969482,1422.932373 1462.926758,1422.287476 1464.918701,1421.549194 
	C1461.006226,1400.240356 1456.842285,1379.363770 1453.170776,1358.401123 
	C1449.199707,1335.727417 1446.089966,1312.897705 1441.845337,1290.278564 
	C1438.642334,1273.209351 1434.103027,1256.406982 1425.113281,1241.232056 
	C1420.724365,1233.823242 1415.245361,1228.057251 1406.773193,1224.624390 
	C1322.905518,1190.643311 1239.151611,1156.381348 1155.438110,1122.021851 
	C1151.991699,1120.607422 1148.661499,1117.930664 1146.302368,1115.013062 
	C1134.821533,1100.814941 1123.690186,1086.334351 1112.364014,1071.862915 
	C1107.398193,1073.949463 1102.571289,1075.977783 1097.537109,1078.093018 
	C1094.213257,1066.868042 1091.013794,1055.954224 1087.742432,1045.062134 
	C1086.164551,1039.808594 1085.508179,1033.734741 1076.898560,1033.855225 
	C1076.898560,1019.953674 1076.845825,1006.702209 1076.969849,993.452393 
	C1076.984253,991.918274 1077.522827,989.612976 1078.592163,988.987122 
	C1087.554932,983.741516 1093.060547,975.759033 1096.043457,966.225281 
	C1099.734741,954.427307 1102.595947,942.369751 1105.492310,931.624023 
	C1109.297607,929.036682 1113.166992,927.340698 1115.691895,924.464478 
	C1119.260010,920.399841 1122.271118,915.688293 1124.761353,910.861694 
	C1138.926270,883.406494 1147.985352,854.217957 1151.583618,823.617310 
	C1152.927979,812.183289 1154.367920,799.985657 1148.114014,788.911621 
	C1149.885010,787.397766 1151.396606,786.089233 1152.807129,784.679626 
	C1183.454468,754.050537 1214.078613,723.398010 1244.763672,692.806702 
	C1246.359741,691.215454 1248.456543,690.126526 1250.583984,688.996399 
	C1252.037476,690.357117 1253.236206,691.515930 1254.415161,692.694702 
	C1454.425781,892.695862 1654.433960,1092.699219 1854.463013,1292.681885 
	C1856.083252,1294.301636 1857.986816,1295.638062 1859.739136,1297.461182 
	C1813.844849,1419.857056 1746.170410,1528.337036 1656.236938,1622.690308 
	C1548.671387,1735.541870 1421.101929,1817.734131 1273.600342,1868.297363 
	C1238.693237,1880.263550 1202.790649,1889.491943 1167.013916,1898.687012 
	C1148.019531,1903.568848 1128.364014,1906.018433 1108.914062,1908.950317 
	C1086.549194,1912.321777 1064.122192,1915.378906 1041.643555,1917.859253 
	C1028.531982,1919.306274 1015.265381,1919.339722 1002.072021,1920.071777 
	C1001.033997,1920.129272 1000.023315,1920.678955 999.000000,1921.000000 
z"/>
<path fill="#5D7188" opacity="1.000000" stroke="none" 
	d="
M1859.758057,1297.106689 
	C1857.986816,1295.638062 1856.083252,1294.301636 1854.463013,1292.681885 
	C1654.433960,1092.699219 1454.425781,892.695862 1254.415161,692.694702 
	C1253.236206,691.515930 1252.037476,690.357117 1250.484009,688.755615 
	C1249.966187,688.011414 1249.812256,687.700684 1249.658447,687.389893 
	C1251.373535,685.817627 1253.151245,684.307983 1254.795044,682.664368 
	C1383.868774,553.610962 1512.930054,424.545166 1642.015381,295.503448 
	C1643.635132,293.884277 1645.551025,292.561615 1647.952759,291.219269 
	C1682.716431,326.559021 1714.184570,364.010712 1742.604492,404.004028 
	C1818.002686,510.106506 1869.937988,626.666626 1898.137085,753.739075 
	C1905.927856,788.846924 1912.405273,824.199097 1915.026855,860.149414 
	C1916.276611,877.287354 1917.608887,894.419922 1919.051025,911.542542 
	C1919.402832,915.720093 1920.334839,919.848816 1921.000000,924.000000 
	C1921.000000,947.020874 1921.000000,970.041809 1920.708252,993.824280 
	C1919.944702,999.013916 1919.361328,1003.433411 1919.020996,1007.871521 
	C1917.644531,1025.829712 1916.512329,1043.808105 1914.957275,1061.750366 
	C1913.836792,1074.678955 1912.588379,1087.620361 1910.707153,1100.454834 
	C1903.528320,1149.428101 1892.798584,1197.631592 1877.884766,1244.839844 
	C1872.331909,1262.416626 1865.828247,1279.693115 1859.758057,1297.106689 
z"/>
<path fill="#FFFFFF" opacity="1.000000" stroke="none" 
	d="
M1.000000,999.468628 
	C1.598634,1004.372864 2.297691,1009.736755 2.778043,1015.120178 
	C4.594937,1035.482788 5.791015,1055.917603 8.222846,1076.205200 
	C14.075150,1125.027832 23.693752,1173.156616 37.142738,1220.459839 
	C62.383938,1309.238770 99.361038,1392.831299 148.578674,1470.969604 
	C188.972748,1535.099609 236.265579,1593.647583 290.891174,1647.090576 
	C294.015015,1650.045654 296.681732,1652.558350 299.327087,1655.093140 
	C354.292877,1707.761597 414.793671,1753.059692 480.616852,1791.275879 
	C546.969971,1829.799927 616.961365,1859.884033 690.533508,1881.610107 
	C739.098938,1895.951538 788.494080,1906.449951 838.731689,1912.892944 
	C852.867920,1914.705811 867.001526,1916.654053 881.192932,1917.888184 
	C894.542847,1919.049072 907.968933,1919.325195 921.357666,1920.060425 
	C922.917603,1920.146118 924.453125,1920.676025 926.000000,1921.000000 
	C617.739685,1921.000000 309.479370,1921.000000 1.000000,1921.000000 
	C1.000000,1613.979126 1.000000,1306.958252 1.000000,999.468628 
z"/>
<path fill="#FFFFFF" opacity="1.000000" stroke="none" 
	d="
M1921.000000,923.531372 
	C1920.334839,919.848816 1919.402832,915.720093 1919.051025,911.542542 
	C1917.608887,894.419922 1916.276611,877.287354 1915.026855,860.149414 
	C1912.405273,824.199097 1905.927856,788.846924 1898.137085,753.739075 
	C1869.937988,626.666626 1818.002686,510.106506 1742.604492,404.004028 
	C1714.184570,364.010712 1682.716431,326.559021 1648.293701,291.161560 
	C1623.855469,268.585358 1600.503540,245.237015 1575.389771,223.969193 
	C1508.539429,167.356491 1434.682373,121.627785 1354.777832,85.694351 
	C1276.468384,50.478195 1194.952759,25.938417 1110.066040,12.960885 
	C1085.891602,9.265094 1061.518066,6.819515 1037.195801,4.168980 
	C1028.490356,3.220289 1019.661194,3.452596 1010.898621,2.964324 
	C1005.789124,2.679614 1000.699707,2.035495 995.300659,1.276539 
	C1303.593628,1.000000 1612.187256,1.000000 1921.000000,1.000000 
	C1921.000000,308.354187 1921.000000,615.708435 1921.000000,923.531372 
z"/>
<path fill="#FFFFFF" opacity="1.000000" stroke="none" 
	d="
M924.531372,0.999998 
	C921.165955,1.666246 917.356140,2.654216 913.493835,2.944403 
	C894.279541,4.388053 874.992432,5.083093 855.839172,7.079023 
	C799.272705,12.973696 743.743530,24.287418 689.207031,40.420681 
	C572.915588,74.822609 466.744537,129.122879 371.172333,203.713242 
	C253.922287,295.222290 162.689743,408.011017 97.522484,541.765747 
	C58.635456,621.580688 31.299868,705.234802 16.175875,792.697083 
	C10.905056,823.178284 7.801889,854.047668 4.194494,884.796814 
	C2.691811,897.605591 2.457678,910.563171 1.323360,923.726562 
	C1.000000,616.406189 1.000000,308.812378 1.000000,1.000000 
	C308.687531,1.000000 616.375122,1.000000 924.531372,0.999998 
z"/>
<path fill="#FFFFFF" opacity="1.000000" stroke="none" 
	d="
M1859.739014,1297.461182 
	C1865.828247,1279.693115 1872.331909,1262.416626 1877.884766,1244.839844 
	C1892.798584,1197.631592 1903.528320,1149.428101 1910.707153,1100.454834 
	C1912.588379,1087.620361 1913.836792,1074.678955 1914.957275,1061.750366 
	C1916.512329,1043.808105 1917.644531,1025.829712 1919.020996,1007.871521 
	C1919.361328,1003.433411 1919.944702,999.013916 1920.708252,994.292969 
	C1921.000000,1302.926880 1921.000000,1611.853760 1921.000000,1921.000000 
	C1613.979126,1921.000000 1306.958252,1921.000000 999.468628,1921.000000 
	C1000.023315,1920.678955 1001.033997,1920.129272 1002.072021,1920.071777 
	C1015.265381,1919.339722 1028.531982,1919.306274 1041.643555,1917.859253 
	C1064.122192,1915.378906 1086.549194,1912.321777 1108.914062,1908.950317 
	C1128.364014,1906.018433 1148.019531,1903.568848 1167.013916,1898.687012 
	C1202.790649,1889.491943 1238.693237,1880.263550 1273.600342,1868.297363 
	C1421.101929,1817.734131 1548.671387,1735.541870 1656.236938,1622.690308 
	C1746.170410,1528.337036 1813.844849,1419.857056 1859.739014,1297.461182 
z"/>
<path fill="#5D7188" opacity="1.000000" stroke="none" 
	d="
M926.468628,1921.000000 
	C924.453125,1920.676025 922.917603,1920.146118 921.357666,1920.060425 
	C907.968933,1919.325195 894.542847,1919.049072 881.192932,1917.888184 
	C867.001526,1916.654053 852.867920,1914.705811 838.731689,1912.892944 
	C788.494080,1906.449951 739.098938,1895.951538 690.533508,1881.610107 
	C616.961365,1859.884033 546.969971,1829.799927 480.616852,1791.275879 
	C414.793671,1753.059692 354.292877,1707.761597 299.327087,1655.093140 
	C296.681732,1652.558350 294.015015,1650.045654 291.190308,1647.232788 
	C292.464783,1645.338257 293.836578,1643.663086 295.359711,1642.139160 
	C357.074249,1580.401123 418.803131,1518.677368 480.523956,1456.945557 
	C482.053375,1455.415771 483.512054,1453.815308 485.442017,1452.064941 
	C486.195984,1452.018799 486.511627,1452.155518 486.827301,1452.291992 
	C495.270325,1460.810913 503.680511,1469.362549 512.161072,1477.843872 
	C658.725952,1624.423584 805.299683,1770.994507 951.869751,1917.569336 
	C952.812073,1918.511353 953.731567,1919.476318 954.830872,1920.715332 
	C945.645752,1921.000000 936.291565,1921.000000 926.468628,1921.000000 
z"/>
<path fill="#FFFFFF" opacity="1.000000" stroke="none" 
	d="
M1147.807495,789.070007 
	C1154.367920,799.985657 1152.927979,812.183289 1151.583618,823.617310 
	C1147.985352,854.217957 1138.926270,883.406494 1124.761353,910.861694 
	C1122.271118,915.688293 1119.260010,920.399841 1115.691895,924.464478 
	C1113.166992,927.340698 1109.297607,929.036682 1105.492310,931.624023 
	C1102.595947,942.369751 1099.734741,954.427307 1096.043457,966.225281 
	C1093.060547,975.759033 1087.554932,983.741516 1078.592163,988.987122 
	C1077.522827,989.612976 1076.984253,991.918274 1076.969849,993.452393 
	C1076.845825,1006.702209 1076.898560,1019.953674 1076.898560,1033.855225 
	C1085.508179,1033.734741 1086.164551,1039.808594 1087.742432,1045.062134 
	C1091.013794,1055.954224 1094.213257,1066.868042 1097.537109,1078.093018 
	C1102.571289,1075.977783 1107.398193,1073.949463 1112.364014,1071.862915 
	C1123.690186,1086.334351 1134.821533,1100.814941 1146.302368,1115.013062 
	C1148.661499,1117.930664 1151.991699,1120.607422 1155.438110,1122.021851 
	C1239.151611,1156.381348 1322.905518,1190.643311 1406.773193,1224.624390 
	C1415.245361,1228.057251 1420.724365,1233.823242 1425.113281,1241.232056 
	C1434.103027,1256.406982 1438.642334,1273.209351 1441.845337,1290.278564 
	C1446.089966,1312.897705 1449.199707,1335.727417 1453.170776,1358.401123 
	C1456.842285,1379.363770 1461.006226,1400.240356 1464.469482,1421.576660 
	C1149.519043,1421.999146 835.052551,1422.001465 520.585999,1421.995361 
	C499.423126,1421.994873 478.260254,1421.929443 457.097412,1421.894043 
	C460.412842,1404.403809 463.990845,1386.958374 466.988373,1369.413818 
	C472.984985,1334.315552 476.353516,1298.719238 487.037140,1264.522949 
	C490.557312,1253.255737 494.916809,1242.319702 502.850555,1233.338135 
	C505.298279,1230.567139 508.382782,1227.838745 511.738342,1226.465332 
	C596.252747,1191.873657 680.809021,1157.382935 765.482117,1123.182007 
	C772.249878,1120.448486 775.877991,1115.319458 779.926758,1110.194214 
	C789.902405,1097.566162 799.762634,1084.846802 809.773254,1072.031006 
	C814.586243,1074.053223 819.280579,1076.025757 824.541809,1078.236328 
	C827.733032,1067.724609 830.878723,1057.405396 833.992615,1047.076660 
	C834.801575,1044.393433 835.257019,1041.569580 836.364258,1039.023071 
	C837.005310,1037.548828 838.455261,1035.700073 839.832214,1035.412354 
	C843.487122,1034.648438 844.005371,1032.513062 844.094849,1029.325928 
	C844.440369,1017.023560 845.047668,1004.728638 845.444946,992.427307 
	C845.481201,991.305176 845.053894,989.546265 844.270935,989.111816 
	C830.280823,981.348572 825.821594,967.652222 822.123230,953.576843 
	C820.073914,945.777283 818.578369,937.832153 816.833191,929.952637 
	C816.439514,930.360168 816.045776,930.767700 815.652039,931.175232 
	C812.155945,928.457703 807.876343,926.332581 805.297241,922.921692 
	C793.144592,906.849731 786.562561,888.078186 780.642029,869.103760 
	C774.017883,847.874573 768.771606,826.361511 770.083313,803.846252 
	C770.462463,797.337952 771.611755,791.054504 777.610779,786.827942 
	C778.609497,786.124268 779.094421,783.902222 778.940979,782.475952 
	C777.579651,769.819275 776.587219,757.085327 774.407227,744.561890 
	C769.238464,714.868713 762.849548,685.324463 765.074768,654.900330 
	C766.710388,632.537659 770.905457,610.402954 779.841492,590.007812 
	C785.096802,578.013367 794.528259,567.526001 803.355774,557.480652 
	C828.568604,528.789368 860.233582,510.561401 897.805725,503.578461 
	C911.415710,501.049011 925.452759,500.253326 939.328857,499.857178 
	C958.127380,499.320465 976.979797,499.404266 995.771362,500.159668 
	C1031.539062,501.597504 1064.598511,511.859528 1093.111328,533.966064 
	C1103.687866,542.166321 1112.731567,552.343872 1122.871460,562.007996 
	C1123.528442,562.620422 1123.788208,562.844543 1124.048096,563.068665 
	C1124.048096,563.068665 1124.027710,562.958435 1124.074585,563.223328 
	C1124.423828,563.683289 1124.726318,563.878296 1125.028687,564.073364 
	C1125.028687,564.073364 1125.003296,563.983154 1125.035156,564.261841 
	C1125.372681,564.723877 1125.678345,564.907288 1125.983887,565.090698 
	C1125.983887,565.090698 1125.983276,565.017578 1126.007080,565.297852 
	C1126.340454,565.755432 1126.650024,565.932678 1126.959717,566.109924 
	C1126.959717,566.109924 1126.961548,566.037720 1126.969849,566.391113 
	C1132.374878,574.861328 1139.476318,582.325378 1142.876831,591.206543 
	C1158.666626,632.445801 1160.776001,674.929016 1152.533081,718.221375 
	C1148.756836,738.054688 1146.245361,758.128967 1143.170654,778.095581 
	C1142.462646,782.693909 1142.405640,787.041626 1147.807495,789.070007 
z"/>
<path fill="#353E4C" opacity="1.000000" stroke="none" 
	d="
M1148.114014,788.911621 
	C1142.405640,787.041626 1142.462646,782.693909 1143.170654,778.095581 
	C1146.245361,758.128967 1148.756836,738.054688 1152.533081,718.221375 
	C1160.776001,674.929016 1158.666626,632.445801 1142.876831,591.206543 
	C1139.476318,582.325378 1132.374878,574.861328 1126.934326,566.397888 
	C1128.569336,567.292908 1130.437378,568.344910 1131.899170,569.803894 
	C1171.003540,608.834106 1210.066040,647.906189 1249.396973,687.180542 
	C1249.812256,687.700684 1249.966187,688.011414 1250.220215,688.562988 
	C1248.456543,690.126526 1246.359741,691.215454 1244.763672,692.806702 
	C1214.078613,723.398010 1183.454468,754.050537 1152.807129,784.679626 
	C1151.396606,786.089233 1149.885010,787.397766 1148.114014,788.911621 
z"/>
<path fill="#B4BFCD" opacity="1.000000" stroke="none" 
	d="
M457.145203,1422.154053 
	C478.260254,1421.929443 499.423126,1421.994873 520.585999,1421.995361 
	C835.052551,1422.001465 1149.519043,1421.999146 1464.434814,1421.971191 
	C1462.926758,1422.287476 1460.969482,1422.932373 1459.012207,1422.932617 
	C1146.313843,1422.977051 833.615540,1422.974976 520.917236,1422.977661 
	C518.585327,1422.977661 516.253418,1423.016479 513.003662,1423.032349 
	C494.064880,1423.033691 476.043884,1423.039795 458.022888,1423.045898 
	C457.746246,1422.835327 457.469635,1422.624756 457.145203,1422.154053 
z"/>
<path fill="#353E4B" opacity="1.000000" stroke="none" 
	d="
M458.085052,1423.376465 
	C476.043884,1423.039795 494.064880,1423.033691 512.549988,1423.104492 
	C511.637390,1424.993530 510.408539,1426.944580 508.858765,1428.593994 
	C501.622131,1436.296021 494.296936,1443.914917 486.915344,1451.927734 
	C486.511627,1452.155518 486.195984,1452.018799 485.652740,1451.764893 
	C476.332520,1442.334106 467.239868,1433.020630 458.085052,1423.376465 
z"/>
<path fill="#353E4C" opacity="1.000000" stroke="none" 
	d="
M1123.891724,562.958008 
	C1123.788208,562.844543 1123.528442,562.620422 1123.168945,562.157654 
	C1123.291382,562.228455 1123.513306,562.537842 1123.891724,562.958008 
z"/>
<path fill="#353E4C" opacity="1.000000" stroke="none" 
	d="
M1126.947510,565.807129 
	C1126.650024,565.932678 1126.340454,565.755432 1125.970459,565.299194 
	C1126.251709,565.181702 1126.593506,565.343018 1126.947510,565.807129 
z"/>
<path fill="#353E4C" opacity="1.000000" stroke="none" 
	d="
M1125.944824,564.799316 
	C1125.678345,564.907288 1125.372681,564.723877 1124.989868,564.273804 
	C1125.243652,564.174133 1125.574585,564.341064 1125.944824,564.799316 
z"/>
<path fill="#353E4C" opacity="1.000000" stroke="none" 
	d="
M1124.879150,563.856628 
	C1124.726318,563.878296 1124.423828,563.683289 1124.019043,563.231201 
	C1124.187744,563.196045 1124.458618,563.417969 1124.879150,563.856628 
z"/>
</svg>